<svg width="542" height="509" viewBox="0 0 542 509" fill="none" xmlns="http://www.w3.org/2000/svg">
<rect x="192" width="350" height="350" fill="#070707"/>
<path d="M115.049 237.427H112.631V235.809H113.437V235H115.049V237.427Z" fill="#EBEBEB"/>
<path d="M109.366 237.427H106.101V235.809H109.366V237.427ZM102.836 237.427H99.5811V235.809H102.836V237.427ZM96.3161 237.427H93.0511V235.809H96.3161V237.427ZM89.7862 237.427H86.5212V235.809H89.7862V237.427ZM83.2563 237.427H79.9913V235.809H83.2563V237.427ZM76.7365 237.427H73.4715V235.809H76.7365V237.427ZM70.2066 237.427H66.9819V235.809H70.2469L70.2066 237.427ZM63.6767 237.427H60.4117V235.809H63.6767V237.427ZM57.1467 237.427H53.8818V235.809H57.1467V237.427ZM50.6269 237.427H47.362V235.809H50.6269V237.427ZM44.097 237.427H40.8321V235.809H44.097V237.427ZM37.5671 237.427H34.3021V235.809H37.5671V237.427ZM31.0372 237.427H27.7823V235.809H31.0372V237.427Z" fill="#EBEBEB"/>
<path d="M24.5174 237.427H22.0989V235H23.7112V235.809H24.5174V237.427Z" fill="#EBEBEB"/>
<path d="M23.7112 231.735H22.0989V228.459H23.7112V231.735ZM23.7112 225.184H22.0989V221.908H23.7112V225.184ZM23.7112 218.632H22.0989V215.357H23.7112V218.632ZM23.7112 212.081H22.0989V208.765H23.7112V212.081ZM23.7112 205.54H22.0989V202.264H23.7112V205.54ZM23.7112 198.989H22.0989V195.713H23.7112V198.989ZM23.7112 192.437H22.0989V189.162H23.7112V192.437ZM23.7112 185.886H22.0989V182.621H23.7112V185.886ZM23.7112 179.345H22.0989V176.069H23.7112V179.345ZM23.7112 172.794H22.0989V169.518H23.7112V172.794ZM23.7112 166.243H22.0989V162.967H23.7112V166.243ZM23.7112 159.691H22.0989V156.426H23.7112V159.691ZM23.7112 153.15H22.0989V149.875H23.7112V153.15Z" fill="#EBEBEB"/>
<path d="M23.7112 146.599H22.0989V144.173H24.5174V145.79H23.7112V146.599Z" fill="#EBEBEB"/>
<path d="M109.366 145.79H106.101V144.173H109.366V145.79ZM102.836 145.79H99.5811V144.173H102.836V145.79ZM96.3161 145.79H93.0511V144.173H96.3161V145.79ZM89.7862 145.79H86.5212V144.173H89.7862V145.79ZM83.2563 145.79H79.9913V144.173H83.2563V145.79ZM76.7365 145.79H73.4715V144.173H76.7365V145.79ZM70.2066 145.79H66.9819V144.173H70.2469L70.2066 145.79ZM63.6767 145.79H60.4117V144.173H63.6767V145.79ZM57.1467 145.79H53.8818V144.173H57.1467V145.79ZM50.6269 145.79H47.362V144.173H50.6269V145.79ZM44.097 145.79H40.8321V144.173H44.097V145.79ZM37.5671 145.79H34.3021V144.173H37.5671V145.79ZM31.0372 145.79H27.7823V144.173H31.0372V145.79Z" fill="#EBEBEB"/>
<path d="M115.049 146.599H113.437V145.79H112.631V144.173H115.049V146.599Z" fill="#EBEBEB"/>
<path d="M115.049 231.735H113.437V228.459H115.049V231.735ZM115.049 225.184H113.437V221.908H115.049V225.184ZM115.049 218.632H113.437V215.357H115.049V218.632ZM115.049 212.081H113.437V208.816H115.049V212.081ZM115.049 205.54H113.437V202.264H115.049V205.54ZM115.049 198.989H113.437V195.713H115.049V198.989ZM115.049 192.437H113.437V189.162H115.049V192.437ZM115.049 185.886H113.437V182.621H115.049V185.886ZM115.049 179.345H113.437V176.069H115.049V179.345ZM115.049 172.794H113.437V169.518H115.049V172.794ZM115.049 166.243H113.437V162.967H115.049V166.243ZM115.049 159.691H113.437V156.426H115.049V159.691ZM115.049 153.15H113.437V149.875H115.049V153.15Z" fill="#EBEBEB"/>
<path d="M28.5985 230.916H17.2115V242.34H28.5985V230.916Z" fill="white"/>
<path d="M29.3946 243.139H16.4053V230.107H29.3946V243.139ZM18.0176 241.521H27.7823V231.725H18.0176V241.521Z" fill="#EBEBEB"/>
<path d="M28.5985 185.087H17.2115V196.512H28.5985V185.087Z" fill="white"/>
<path d="M29.3946 197.321H16.4053V184.279H29.3946V197.321ZM18.0176 195.703H27.7823V185.896H18.0176V195.703Z" fill="#EBEBEB"/>
<path d="M28.5985 139.269H17.2115V150.693H28.5985V139.269Z" fill="white"/>
<path d="M29.3946 151.502H16.4053V138.46H29.3946V151.502ZM18.0176 149.885H27.7823V140.078H18.0176V149.885Z" fill="#EBEBEB"/>
<path d="M119.937 230.916H108.55V242.34H119.937V230.916Z" fill="white"/>
<path d="M120.743 243.139H107.743V230.107H120.743V243.139ZM109.356 241.521H119.13V231.725H109.356V241.521Z" fill="#EBEBEB"/>
<path d="M119.937 185.087H108.55V196.512H119.937V185.087Z" fill="white"/>
<path d="M120.743 197.321H107.743V184.279H120.743V197.321ZM109.356 195.703H119.13V185.896H109.356V195.703Z" fill="#EBEBEB"/>
<path d="M119.937 139.269H108.55V150.693H119.937V139.269Z" fill="white"/>
<path d="M120.743 151.502H107.743V138.46H120.743V151.502ZM109.356 149.885H119.13V140.078H109.356V149.885Z" fill="#EBEBEB"/>
<path d="M74.2675 139.269H62.8805V150.693H74.2675V139.269Z" fill="white"/>
<path d="M75.0435 151.502H62.0441V138.46H75.0435V151.502ZM63.6564 149.885H73.4312V140.078H63.6564V149.885Z" fill="#EBEBEB"/>
<path d="M74.2675 230.916H62.8805V242.34H74.2675V230.916Z" fill="white"/>
<path d="M75.0435 243.139H62.0441V230.107H75.0435V243.139ZM63.6564 241.521H73.4312V231.725H63.6564V241.521Z" fill="#EBEBEB"/>
<path d="M94.1899 182.479H92.5876C88.053 168.73 85.443 163.078 77.7946 163.078H76.7869V218.592H83.9315V220.361H53.2671V218.592H60.4117V163.048H59.3234C51.6749 163.048 48.8433 169.336 44.5202 182.479H42.9281L43.8048 161.248H93.4139L94.1899 182.479Z" fill="#EBEBEB"/>
<path d="M45.407 373.587H18.7231V384.9H45.407V373.587Z" fill="#EBEBEB"/>
<path d="M184.833 285.257H158.149V296.57H184.833V285.257Z" fill="#EBEBEB"/>
<path d="M30.5233 387.853H3.83932V399.166H30.5233V387.853Z" fill="#EBEBEB"/>
<path d="M404.219 387.853H377.535V399.166H404.219V387.853Z" fill="#EBEBEB"/>
<path d="M389.336 119.12H362.652V130.433H389.336V119.12Z" fill="#EBEBEB"/>
<path d="M404.219 133.385H377.535V144.698H404.219V133.385Z" fill="#EBEBEB"/>
<path d="M45.407 119.12H18.7231V130.433H45.407V119.12Z" fill="#EBEBEB"/>
<path d="M404.209 204.782H210.499V213.122H404.209V204.782Z" fill="#EBEBEB"/>
<path d="M238.664 245.98H231.126L228.093 213.132H238.664V245.98Z" fill="#EBEBEB"/>
<path d="M376.054 245.98H383.602L386.625 213.132H376.054V245.98Z" fill="#EBEBEB"/>
<path d="M228.093 213.132H238.664V224.445H229.131L228.093 213.132Z" fill="#DBDBDB"/>
<path d="M386.625 213.132L385.587 224.445H376.054V213.132H386.625Z" fill="#DBDBDB"/>
<path d="M280.615 154.727C272.019 166.404 263.051 180.002 260.874 194.601C260.874 194.823 261.196 194.894 261.247 194.682C262.233 190.687 263.502 186.768 265.046 182.954C270.699 181.387 276.251 180.113 279.214 174.482C282.237 168.699 281.854 161.157 281.28 154.849C281.28 154.515 280.826 154.495 280.615 154.727Z" fill="#EBEBEB"/>
<path d="M265.177 182.843C269.036 174.149 273.994 165.414 280.292 158.266C280.292 158.266 280.403 158.266 280.363 158.337C276.431 163.432 272.976 168.881 270.044 174.614C272.886 171.722 276.01 169.124 278.7 166.05C278.705 166.044 278.712 166.04 278.719 166.036C278.726 166.033 278.734 166.031 278.742 166.03C278.75 166.03 278.758 166.031 278.765 166.033C278.773 166.036 278.78 166.04 278.786 166.045C278.792 166.051 278.797 166.057 278.8 166.064C278.804 166.072 278.806 166.079 278.806 166.087C278.806 166.095 278.805 166.103 278.803 166.111C278.8 166.118 278.796 166.125 278.791 166.131C276.11 169.356 273.188 172.854 269.721 175.23C268.784 176.969 267.847 178.698 266.89 180.437C267.122 180.305 267.363 180.194 267.605 180.073C267.605 180.073 267.686 180.073 267.605 180.134C267.333 180.265 267.071 180.407 266.799 180.528C266.346 181.347 265.892 182.176 265.429 182.995C265.348 183.187 265.096 183.025 265.177 182.843Z" fill="#A6A6A6"/>
<path d="M268.049 179.81C270.36 178.512 272.567 177.035 274.649 175.392C274.699 175.392 274.78 175.392 274.73 175.473C272.712 177.22 270.5 178.73 268.139 179.972C268.039 180.022 267.938 179.871 268.049 179.81Z" fill="#A6A6A6"/>
<path d="M259.967 194.47C259.967 194.651 260.289 194.641 260.279 194.47C260.33 189.637 260.279 184.794 260.36 179.952C261.589 177.454 264.24 176.08 266.074 174.078C267.398 172.62 268.548 171.012 269.5 169.286C271.718 165.17 273.072 160.642 273.48 155.981C273.984 150.825 272.039 133.8 269.873 134.386C268.744 134.7 265.106 143.131 264.139 145.911C262.573 150.515 261.43 155.253 260.723 160.065C258.959 171.358 259.11 183.045 259.967 194.47Z" fill="#EBEBEB"/>
<path d="M259.937 173.663C260.199 167.597 261.569 161.4 262.849 155.465C264.239 149.086 265.872 143.091 269.117 137.399C269.132 137.383 269.152 137.373 269.173 137.369C269.195 137.366 269.217 137.369 269.237 137.379C269.256 137.39 269.272 137.406 269.281 137.426C269.29 137.446 269.293 137.468 269.288 137.49C267.107 141.914 265.418 146.566 264.25 151.361C264.471 151.017 264.733 150.693 264.965 150.35C265.056 150.218 265.257 150.35 265.177 150.471C264.89 150.986 264.553 151.47 264.169 151.917C263.04 156.476 262.234 161.137 261.539 165.788L261.7 165.606C261.7 165.606 261.791 165.606 261.771 165.666C261.75 165.727 261.589 165.97 261.488 166.121C261.146 168.487 260.823 170.843 260.481 173.198C264.776 169.738 268.14 165.255 270.266 160.156C270.266 160.156 270.316 160.156 270.266 160.156C268.25 165.565 265.177 170.377 260.38 173.663C260.289 174.29 260.199 174.917 260.118 175.544C260.118 175.675 259.886 175.645 259.886 175.544C259.886 174.988 259.886 174.432 259.937 173.876C259.92 173.863 259.906 173.847 259.897 173.829C259.888 173.81 259.883 173.79 259.883 173.769C259.883 173.749 259.888 173.728 259.897 173.71C259.906 173.691 259.92 173.675 259.937 173.663Z" fill="#A6A6A6"/>
<path d="M261.912 164.817C265.179 160.159 268.035 155.223 270.447 150.067C270.447 150.067 270.568 150.067 270.548 150.067C268.633 155.478 265.762 160.498 262.073 164.888C261.992 165.029 261.841 164.918 261.912 164.817Z" fill="#A6A6A6"/>
<path d="M266.164 148.884C267.484 146.528 268.885 144.243 270.135 141.807C270.135 141.746 270.266 141.807 270.235 141.867C269.211 144.363 267.913 146.737 266.366 148.944C266.35 148.959 266.331 148.97 266.311 148.975C266.29 148.98 266.268 148.979 266.247 148.973C266.227 148.967 266.208 148.955 266.194 148.94C266.179 148.924 266.169 148.905 266.164 148.884Z" fill="#A6A6A6"/>
<path d="M257.619 182.105C257.553 185.302 257.175 188.485 256.49 191.608L256.641 192.619C257.626 189.172 258.194 185.618 258.334 182.034C258.365 181.984 258.381 181.926 258.381 181.867C258.381 181.809 258.365 181.751 258.334 181.701C258.472 176.895 258.114 172.087 257.266 167.355C255.785 158.488 252.53 149.976 246.363 143.333C246.312 143.29 246.253 143.258 246.188 143.241C246.123 143.224 246.056 143.223 245.99 143.236C245.925 143.25 245.864 143.279 245.811 143.32C245.759 143.361 245.716 143.414 245.688 143.475C243.199 149.814 244.065 157.386 246.181 163.695C247.339 167.146 248.992 170.409 251.089 173.38C253.205 176.332 255.896 178.85 257.619 182.105Z" fill="#EBEBEB"/>
<path d="M247.119 146.326C252.953 155.829 257.014 167.102 257.518 178.334C257.518 178.536 257.186 178.587 257.165 178.334C257.024 177.323 256.873 176.312 256.712 175.301C254.174 173.048 251.944 170.468 250.081 167.628C250.081 167.628 250.081 167.516 250.162 167.557C252.166 170.042 254.316 172.405 256.601 174.634C256.185 172.16 255.684 169.717 255.1 167.304L254.636 166.758C254.535 166.637 254.707 166.465 254.817 166.586L254.948 166.738C254.138 163.438 253.128 160.19 251.925 157.012C250.444 155.233 248.781 153.696 247.703 151.553H247.774C248.65 152.776 249.487 154.01 250.474 155.142C250.867 155.597 251.301 156.021 251.714 156.466C250.365 153.02 248.765 149.678 246.927 146.467C246.922 146.443 246.924 146.417 246.933 146.394C246.942 146.371 246.958 146.35 246.978 146.335C246.998 146.32 247.022 146.312 247.047 146.31C247.072 146.308 247.097 146.314 247.119 146.326Z" fill="#A6A6A6"/>
<path d="M248.298 158.053C250.182 160.601 252.328 163.038 254.092 165.666C254.142 165.747 254.031 165.818 253.971 165.757C251.725 163.467 249.775 160.903 248.167 158.124C248.116 158.043 248.237 157.983 248.298 158.053Z" fill="#A6A6A6"/>
<path d="M254.354 166.303L254.435 166.384C254.486 166.445 254.435 166.536 254.344 166.475L254.263 166.394C254.213 166.303 254.294 166.202 254.354 166.303Z" fill="#A6A6A6"/>
<path d="M237.062 162.199C237.751 167.511 239.885 172.53 243.229 176.706C244.615 178.352 246.332 179.686 248.268 180.619C250.424 181.691 252.691 182.934 254.928 183.814C255.995 186.531 256.788 189.349 257.297 192.225L257.508 191.477C256.077 179.092 248.086 168.507 237.868 161.713C237.789 161.644 237.691 161.602 237.587 161.593C237.483 161.583 237.378 161.607 237.289 161.661C237.199 161.715 237.129 161.796 237.088 161.893C237.047 161.989 237.038 162.096 237.062 162.199Z" fill="#EBEBEB"/>
<path d="M240.599 165.858C240.518 165.798 240.599 165.666 240.7 165.727C246.312 169.916 250.788 175.45 253.719 181.822C253.79 181.994 253.558 182.145 253.467 181.974C252.994 181.134 252.51 180.326 252.016 179.527C249.688 179.092 247.471 177.444 245.748 175.877C245.698 175.877 245.748 175.766 245.809 175.807C246.701 176.623 247.693 177.323 248.761 177.889C249.719 178.374 250.777 178.678 251.724 179.062C250.867 177.687 249.96 176.373 249.023 175.089C246.49 174.127 244.113 172.795 241.969 171.136C241.909 171.136 241.969 170.974 242.04 171.025C244.148 172.3 246.321 173.464 248.55 174.512C247.129 172.627 245.594 170.831 243.954 169.134C243.158 168.719 242.352 168.295 241.586 167.84C241.526 167.84 241.586 167.698 241.637 167.729C242.275 167.951 242.884 168.25 243.451 168.618C242.564 167.688 241.607 166.758 240.599 165.858Z" fill="#A6A6A6"/>
<path d="M240.811 170.135C240.949 170.218 241.081 170.312 241.204 170.418C241.204 170.418 241.204 170.499 241.153 170.479C241.01 170.417 240.875 170.339 240.75 170.246C240.68 170.206 240.74 170.094 240.811 170.135Z" fill="#A6A6A6"/>
<path d="M270.034 204.782H248.993L250.021 190.951L250.424 186.432H268.411L268.804 190.951L270.034 204.782Z" fill="#DBDBDB"/>
<path d="M268.804 190.951H250.021L250.424 186.432H268.411L268.804 190.951Z" fill="#C7C7C7"/>
<path d="M269.852 182.732H248.993V187.362H269.852V182.732Z" fill="#DBDBDB"/>
<path d="M321.175 204.751V154.505H308.558V204.751H321.175Z" fill="#C7C7C7"/>
<path d="M321.165 157.336V151.816H308.548V157.336H321.165Z" fill="#DBDBDB"/>
<path d="M321.165 166.475V164.423H308.548V166.475H321.165Z" fill="#DBDBDB"/>
<path d="M321.165 198.16V192.64H308.548V198.16H321.165Z" fill="#DBDBDB"/>
<path d="M329.982 204.751V146.144H321.165V204.751H329.982Z" fill="#DBDBDB"/>
<path d="M328.178 174.199V151.654H322.888V174.199H328.178Z" fill="#EBEBEB"/>
<path d="M392.743 198.407L351.199 157.205L345 163.496L386.544 204.698L392.743 198.407Z" fill="#C7C7C7"/>
<path d="M381.765 189.983L365.784 174.134L362.065 177.908L378.046 193.758L381.765 189.983Z" fill="#DBDBDB"/>
<path d="M344.936 204.772V160.247H329.972V204.772H344.936Z" fill="#A6A6A6"/>
<path d="M344.946 200.04V195.895H329.982V200.04H344.946Z" fill="#C7C7C7"/>
<path d="M344.946 193.165V191.558H329.982V193.165H344.946Z" fill="#C7C7C7"/>
<path d="M292.211 204.796L308.658 166.353L299.157 162.261L282.711 200.705L292.211 204.796Z" fill="#A6A6A6"/>
<path d="M293.942 200.718L295.476 197.132L285.975 193.041L284.441 196.627L293.942 200.718Z" fill="#C7C7C7"/>
<path d="M303.723 177.854L305.257 174.268L295.756 170.177L294.222 173.763L303.723 177.854Z" fill="#C7C7C7"/>
<path d="M302.067 181.702L302.663 180.309L293.162 176.217L292.566 177.611L302.067 181.702Z" fill="#C7C7C7"/>
<path d="M330.919 320.166L272.614 335.463L253.034 260.366L296.335 249.003L311.35 245.07L315.078 259.375L330.919 320.166Z" fill="#EBEBEB"/>
<path d="M262.516 273.366L310.015 260.908L309.513 258.981L262.013 271.439L262.516 273.366Z" fill="#DBDBDB"/>
<path d="M263.8 278.241L311.299 265.784L310.797 263.857L263.298 276.314L263.8 278.241Z" fill="#DBDBDB"/>
<path d="M265.061 283.099L312.56 270.642L312.058 268.715L264.559 281.173L265.061 283.099Z" fill="#DBDBDB"/>
<path d="M266.335 287.967L313.834 275.51L313.332 273.583L265.833 286.041L266.335 287.967Z" fill="#DBDBDB"/>
<path d="M267.597 292.836L315.096 280.378L314.594 278.451L267.095 290.909L267.597 292.836Z" fill="#DBDBDB"/>
<path d="M268.871 297.704L316.37 285.246L315.868 283.319L268.369 295.777L268.871 297.704Z" fill="#DBDBDB"/>
<path d="M270.135 302.572L317.634 290.114L317.132 288.187L269.633 300.645L270.135 302.572Z" fill="#DBDBDB"/>
<path d="M271.407 307.44L318.906 294.983L318.404 293.056L270.905 305.513L271.407 307.44Z" fill="#DBDBDB"/>
<path d="M272.671 312.308L320.17 299.851L319.668 297.924L272.169 310.381L272.671 312.308Z" fill="#DBDBDB"/>
<path d="M273.943 317.166L321.442 304.709L320.94 302.782L273.44 315.239L273.943 317.166Z" fill="#DBDBDB"/>
<path d="M275.009 320.325L322.631 308.011L322.135 306.079L274.512 318.393L275.009 320.325Z" fill="#DBDBDB"/>
<path d="M276.488 326.9L323.987 314.443L323.485 312.516L275.986 324.973L276.488 326.9Z" fill="#DBDBDB"/>
<path d="M346.408 341.832L286.228 345.209L281.905 267.706L326.586 265.199L342.911 279.1L346.408 341.832Z" fill="#EBEBEB"/>
<path d="M326.586 265.199L342.911 279.1L327.412 279.969L326.586 265.199Z" fill="#DBDBDB"/>
<path d="M288.626 282.355L322.08 280.478L321.969 278.49L288.515 280.366L288.626 282.355Z" fill="#DBDBDB"/>
<path d="M288.902 287.383L322.355 285.506L322.245 283.518L288.791 285.394L288.902 287.383Z" fill="#DBDBDB"/>
<path d="M289.197 292.4L322.651 290.524L322.54 288.535L289.086 290.411L289.197 292.4Z" fill="#DBDBDB"/>
<path d="M289.47 297.42L338.489 294.671L338.378 292.682L289.359 295.432L289.47 297.42Z" fill="#DBDBDB"/>
<path d="M289.745 302.438L338.764 299.689L338.653 297.7L289.634 300.45L289.745 302.438Z" fill="#DBDBDB"/>
<path d="M290.02 307.466L339.039 304.717L338.928 302.728L289.909 305.478L290.02 307.466Z" fill="#DBDBDB"/>
<path d="M290.316 312.494L339.335 309.744L339.224 307.756L290.205 310.505L290.316 312.494Z" fill="#DBDBDB"/>
<path d="M290.591 317.512L339.61 314.762L339.499 312.774L290.48 315.523L290.591 317.512Z" fill="#DBDBDB"/>
<path d="M290.866 322.54L339.885 319.79L339.774 317.802L290.755 320.551L290.866 322.54Z" fill="#DBDBDB"/>
<path d="M291.151 327.558L340.17 324.808L340.059 322.82L291.041 325.569L291.151 327.558Z" fill="#DBDBDB"/>
<path d="M291.426 332.576L340.445 329.826L340.334 327.838L291.316 330.587L291.426 332.576Z" fill="#DBDBDB"/>
<path d="M291.712 337.603L340.73 334.854L340.62 332.865L291.601 335.615L291.712 337.603Z" fill="#DBDBDB"/>
<path d="M0 483.513L51.0099 483.27L102.02 483.179L204.029 483.017L306.039 483.179L357.049 483.27L408.059 483.513L357.049 483.766L306.039 483.857L204.029 484.018L102.02 483.857L51.0099 483.766L0 483.513Z" fill="#263238"/>
<path d="M113.991 254.26C107.784 240.288 94.3108 231.118 81.3618 234.596C53.5795 242.047 57.3584 284.185 37.4059 311.432C13.3016 344.349 13.0094 372.02 33.9898 376.034C57.4894 380.523 79.4472 355.238 76.9481 302.282C75.3861 269.162 82.3494 257.434 91.2877 254.887C97.8579 253.016 105.194 260.953 105.194 260.953L113.991 254.26Z" fill="#263238"/>
<path d="M76.5551 283.953C76.4241 289.22 76.8876 294.477 77.1597 299.724C77.4318 304.971 77.8248 310.198 77.986 315.425C78.1778 320.642 78.1072 325.865 77.7744 331.075C77.4914 336.256 76.6844 341.395 75.366 346.412C74.1316 351.416 71.9488 356.136 68.9368 360.313C65.7313 364.423 61.8413 367.946 57.439 370.726C52.9982 373.559 47.968 375.33 42.7366 375.903C40.1012 376.194 37.4394 376.147 34.8161 375.761C33.5003 375.575 32.2001 375.291 30.9263 374.912C29.6347 374.584 28.3961 374.074 27.2482 373.395C29.4994 374.896 32.0285 375.928 34.6851 376.428C37.3558 377.002 40.0884 377.233 42.8172 377.116C45.5517 376.967 48.2583 376.488 50.8788 375.69C53.5046 374.869 56.0297 373.753 58.4064 372.364C60.7751 370.992 63.0088 369.398 65.0774 367.602L66.5889 366.227L68.0501 364.802C69.0285 363.833 69.9409 362.8 70.7809 361.708C74.0209 357.323 76.3791 352.348 77.724 347.059C80.465 336.615 80.5355 325.828 79.8704 315.364C79.5379 310.097 78.9635 304.86 78.3286 299.633C77.6938 294.406 76.9783 289.19 76.5551 283.953Z" fill="#263238"/>
<path d="M107.905 246.172C105.707 243.258 103.151 240.636 100.297 238.367C97.4762 236.176 94.1962 234.657 90.7047 233.925C87.2132 233.193 83.6014 233.267 80.1425 234.141C78.4143 234.589 76.7284 235.188 75.104 235.93C73.4964 236.637 71.9637 237.504 70.529 238.519C67.7515 240.662 65.3649 243.272 63.4751 246.232C61.5857 249.266 60.0153 252.488 58.7893 255.847C56.1995 262.58 54.4058 269.698 52.3098 276.744C50.314 283.878 47.7738 290.848 44.7117 297.591C41.3883 304.198 37.5576 310.536 33.2541 316.547C29.1024 322.613 24.7894 328.507 21.4943 334.978C19.7619 338.168 18.4381 341.565 17.5541 345.087L16.9697 347.746C16.8488 348.646 16.7883 349.556 16.6976 350.456L16.5968 351.77V353.145L16.6573 355.885C15.4581 348.606 17.0906 340.993 20.2346 334.31C23.3787 327.628 27.5002 321.45 31.4201 315.273C35.3401 309.096 39.25 302.949 42.263 296.378C45.194 289.733 47.6326 282.88 49.5587 275.875C51.6951 268.889 53.4989 261.721 56.27 254.816C57.6216 251.307 59.3338 247.949 61.3791 244.797C63.5002 241.628 66.1934 238.885 69.3198 236.709C70.9058 235.663 72.5941 234.782 74.3583 234.08C76.0963 233.347 77.8975 232.775 79.7394 232.372C83.4219 231.53 87.2512 231.581 90.9103 232.519C94.5693 233.458 97.9527 235.258 100.78 237.77C103.541 240.217 105.94 243.046 107.905 246.172Z" fill="#263238"/>
<path d="M119.382 256.858C119.382 254.199 117.367 250.792 115.684 250.398C114.001 250.003 101.385 255.736 100.377 259.032C99.3694 262.327 105.073 265.098 105.073 265.098L119.382 256.858Z" fill="#FFC727"/>
<path d="M106.907 361.809C114.203 405.636 125.116 440.616 136.665 449.655C145.986 456.954 159.439 462.636 173.395 466.983C188.331 471.439 203.544 474.904 218.933 477.356C223.669 478.145 227.62 478.711 230.421 479.145C237.354 480.156 252.52 434.914 248.036 428.879C247.028 427.494 242.493 426.129 236.115 424.774C214.64 420.275 169.687 416.747 167.339 414.098C164.991 411.449 143.295 379.502 125.852 354.914C113.639 337.707 102.866 337.505 106.907 361.809Z" fill="#F7A9A0"/>
<path d="M216.817 473.342C217.654 473.817 229.524 480.187 236.921 482.694C242.443 484.574 258.486 489.548 261.106 483.654C262.93 479.61 253.84 475.566 247.471 472.594C244.126 471.017 240.075 467.236 241.173 465.082C243.108 461.311 251.734 465.568 257.367 469.197C268.26 476.213 282.64 488.618 289.724 483.23C292.395 481.208 289.573 477.164 285.351 473.12C292.274 477.912 299.701 481.926 302.764 479.782C304.517 478.559 304.679 476.749 303.822 474.727C305.989 475.546 307.934 475.496 309.354 474.111C311.773 471.785 310.805 468.156 308.437 464.365C308.875 464.335 309.299 464.203 309.675 463.978C310.052 463.753 310.37 463.442 310.604 463.071C315.834 455.802 292.264 433.186 283.87 430.789C259.181 423.713 232.537 424.724 232.537 424.724C222.43 432.104 216.797 473.322 216.817 473.342Z" fill="#F7A9A0"/>
<path d="M254.535 451.636C260.451 452.789 266.04 455.24 270.9 458.814C276.544 463.081 280.927 468.773 286.107 473.544C286.248 473.676 286.036 473.888 285.895 473.757C283.477 471.3 280.786 469.076 278.257 466.68C275.727 464.284 273.389 461.979 270.769 459.845C266.037 455.93 260.479 453.147 254.515 451.707C254.414 451.727 254.475 451.626 254.535 451.636Z" fill="#263238"/>
<path d="M259.665 441.223C266.134 443.316 272.765 445.439 278.73 448.816C285.24 452.516 290.208 458.309 295.095 463.879C298.024 467.249 300.883 470.66 303.671 474.111C303.792 474.252 303.59 474.464 303.469 474.323C298.511 468.567 293.386 462.966 288.092 457.52C283.22 452.446 277.399 448.385 270.961 445.57C267.273 443.963 263.474 442.648 259.675 441.344C259.667 441.345 259.659 441.344 259.651 441.342C259.644 441.339 259.637 441.335 259.63 441.33C259.624 441.325 259.619 441.319 259.616 441.312C259.612 441.304 259.61 441.297 259.609 441.289C259.608 441.281 259.609 441.273 259.612 441.265C259.614 441.257 259.618 441.25 259.623 441.244C259.628 441.238 259.635 441.233 259.642 441.23C259.649 441.226 259.657 441.224 259.665 441.223Z" fill="#263238"/>
<path d="M267.081 432.245C273.389 433.843 278.902 435.218 284.394 438.888C291.659 443.761 298.501 451.717 300.94 454.548C303.6 457.662 306.16 460.867 308.669 464.102C308.77 464.233 308.538 464.415 308.437 464.284C302.684 457.165 296.477 450.427 289.855 444.114C286.748 441.054 283.185 438.496 279.295 436.532C275.345 434.772 271.252 433.355 267.061 432.296C267.061 432.296 267.051 432.245 267.081 432.245Z" fill="#263238"/>
<path d="M113.85 407.698L151.841 385.224C151.841 385.224 135.627 358.938 121.771 346.533C107.915 334.128 102.322 343.864 104.428 361.89C106.534 379.916 113.85 407.698 113.85 407.698Z" fill="#FFC727"/>
<path d="M126.315 396.264C126.077 397.781 125.622 399.255 124.965 400.642C124.854 400.864 124.753 401.097 124.643 401.319L123.081 402.239C123.312 401.531 123.595 400.834 123.897 400.146C124.513 398.742 125.328 397.435 126.315 396.264ZM110.847 376.176C109.467 375.512 107.997 375.055 106.484 374.821C108.851 376.784 111.69 378.091 114.717 378.612C113.547 377.621 112.245 376.801 110.847 376.176ZM123.877 353.934C124.388 355.377 125.104 356.739 126.003 357.978C125.715 354.908 124.627 351.969 122.849 349.455C122.979 350.996 123.325 352.51 123.877 353.954V353.934ZM141.34 372.03C140.077 372.201 138.836 372.513 137.642 372.961C136.204 373.48 134.847 374.201 133.611 375.104C135.14 374.982 136.643 374.641 138.075 374.093C139.265 373.659 140.403 373.096 141.471 372.415C141.44 372.289 141.396 372.167 141.34 372.051V372.03Z" fill="white"/>
<path d="M145.855 379.512C139.809 382.636 123.514 391.644 113.749 398.893C113.689 398.893 113.84 399.186 113.901 399.155C122.97 394.394 140.292 383.556 146.076 379.896C146.187 379.825 145.976 379.451 145.855 379.512Z" fill="#263238"/>
<path d="M148.717 387.084L113.86 407.698C113.86 407.698 106.534 379.926 104.428 361.89C103.078 350.254 104.922 342.075 110.132 341.074L148.717 387.084Z" fill="#263238"/>
<path d="M150.551 483.483H24.9507C24.9507 483.483 52.2292 377.783 77.4822 348.009C78.0465 347.322 78.631 346.685 79.2155 346.078C79.3364 345.937 79.4372 345.836 79.5581 345.714C81.512 343.619 83.7881 341.851 86.2996 340.477C86.743 340.235 87.1864 340.012 87.6499 339.81C97.3743 335.321 107.643 339.042 115.059 345.411C117.407 347.433 144.031 382.181 146.389 395.425C148.404 407.122 140.544 419.689 140.544 419.689L150.551 483.483Z" fill="#FFC727"/>
<path d="M95.0565 354.55C94.8148 356.071 94.3567 357.548 93.6961 358.938C93.08 360.344 92.2618 361.652 91.2676 362.82C91.5077 361.303 91.9659 359.828 92.6279 358.443C93.2476 357.035 94.0655 355.725 95.0565 354.55ZM76.152 413.714C75.4992 415.102 75.0446 416.576 74.8017 418.091C76.7583 415.716 78.0611 412.869 78.5806 409.832C77.5933 411.005 76.7757 412.312 76.152 413.714ZM60.6334 475.455C59.9702 476.843 59.5151 478.322 59.2831 479.843C61.2272 477.456 62.5283 474.609 63.062 471.573C62.0746 472.746 61.2571 474.053 60.6334 475.455ZM123.897 400.146C123.236 401.536 122.778 403.014 122.537 404.534C123.533 403.364 124.352 402.052 124.965 400.642C125.622 399.255 126.077 397.781 126.315 396.264C125.328 397.435 124.513 398.742 123.897 400.146ZM143.799 440.485C143.156 441.858 142.708 443.314 142.469 444.812C143.095 444.088 143.645 443.302 144.111 442.466L143.799 440.485ZM95.9634 469.167C95.3106 470.559 94.856 472.036 94.6131 473.555C95.6097 472.385 96.4281 471.073 97.0417 469.662C97.6945 468.274 98.1491 466.8 98.392 465.285C97.4047 466.458 96.5871 467.765 95.9634 469.167ZM110.847 376.155C109.467 375.491 107.997 375.035 106.484 374.801C108.851 376.764 111.69 378.071 114.717 378.592C113.546 377.608 112.244 376.795 110.847 376.176V376.155ZM119.151 426.331C117.767 425.676 116.298 425.22 114.787 424.976C115.954 425.97 117.257 426.791 118.657 427.413C120.041 428.068 121.51 428.524 123.02 428.768C121.85 427.784 120.547 426.971 119.151 426.351V426.331ZM122.174 481.198C120.786 480.543 119.314 480.087 117.8 479.843C120.173 481.804 123.014 483.11 126.043 483.634C124.873 482.651 123.57 481.837 122.174 481.218V481.198ZM61.4194 435.015C60.0321 434.36 58.5599 433.904 57.046 433.661C58.2148 434.657 59.5217 435.478 60.9256 436.097C62.3094 436.752 63.7783 437.208 65.289 437.452C64.1184 436.469 62.8158 435.655 61.4194 435.036V435.015ZM143.094 410.287C143.173 411.316 143.366 412.333 143.668 413.32C143.839 412.895 144.021 412.45 144.192 411.995C143.87 411.405 143.503 410.84 143.094 410.307V410.287ZM140.655 468.823C141.17 470.265 141.886 471.626 142.781 472.867C142.661 471.337 142.321 469.832 141.774 468.398C141.255 466.956 140.536 465.595 139.637 464.355C139.766 465.891 140.109 467.402 140.655 468.843V468.823ZM75.5676 383.991C76.0785 385.434 76.7946 386.796 77.6938 388.035C77.5709 386.505 77.2316 385 76.6861 383.566C76.1633 382.126 75.4444 380.765 74.5498 379.522C74.6716 381.06 75.0145 382.572 75.5676 384.011V383.991ZM95.51 435.855C96.0252 437.296 96.741 438.658 97.6362 439.899C97.5205 438.368 97.181 436.862 96.6285 435.43C96.1176 433.986 95.4015 432.624 94.5023 431.386C94.6233 432.923 94.9626 434.434 95.51 435.875V435.855ZM41.346 457.015C41.8603 458.457 42.5762 459.818 43.4723 461.059C43.3503 459.525 43.011 458.017 42.4646 456.58C41.9417 455.14 41.2228 453.779 40.3282 452.536C40.4511 454.07 40.7938 455.579 41.346 457.015ZM118.697 454.689C120.136 454.171 121.493 453.449 122.728 452.546C121.202 452.662 119.701 453.003 118.274 453.557C116.835 454.07 115.477 454.788 114.243 455.69C115.768 455.57 117.267 455.233 118.697 454.689ZM45.8907 414.725C45.7295 415.2 45.5582 415.665 45.397 416.14L46.052 415.918C47.4931 415.406 48.8513 414.683 50.0828 413.774C48.6481 413.894 47.2371 414.213 45.8907 414.725ZM135.737 373.81C134.982 374.179 134.264 374.619 133.591 375.124C134.499 375.068 135.398 374.912 136.272 374.659C136.09 374.376 135.909 374.093 135.737 373.81ZM76.2125 454.689C77.6482 454.165 79.0046 453.444 80.2433 452.546C78.7172 452.662 77.2165 453.003 75.7892 453.557C74.3518 454.073 72.9946 454.791 71.7584 455.69C73.2829 455.57 74.7826 455.233 76.2125 454.689ZM28.3063 477.477C27.6312 477.74 26.9661 478.013 26.2909 478.337C26.1969 478.701 26.1062 479.038 26.0189 479.348C26.9257 479.15 27.818 478.89 28.6893 478.569C30.1268 478.053 31.4839 477.335 32.7201 476.436C31.2069 476.57 29.7206 476.921 28.3063 477.477ZM96.8301 398.407C98.2657 397.883 99.6222 397.162 100.861 396.264C99.3348 396.38 97.8341 396.721 96.4068 397.275C94.9693 397.791 93.6122 398.509 92.376 399.408C93.8964 399.283 95.3921 398.946 96.82 398.407H96.8301Z" fill="white"/>
<path d="M121.7 415.18C116.349 415.704 111.044 416.626 105.829 417.94C103.249 418.627 100.72 419.426 98.1905 420.285C96.9309 420.72 95.6612 421.104 94.3814 421.478C93.0601 421.918 91.689 422.19 90.3002 422.287C90.28 422.294 90.2625 422.307 90.25 422.324C90.2376 422.341 90.2309 422.362 90.2309 422.383C90.2309 422.404 90.2376 422.425 90.25 422.442C90.2625 422.46 90.28 422.473 90.3002 422.479C91.6143 422.537 92.9308 422.503 94.2403 422.378C95.5079 422.21 96.7634 421.96 97.999 421.63C100.619 420.963 103.209 420.164 105.829 419.466C111.119 418.051 116.4 416.646 121.771 415.614C122.013 415.574 121.952 415.149 121.7 415.18Z" fill="#263238"/>
<path d="M134.962 419.81C130.551 419.391 126.12 419.218 121.69 419.294C119.463 419.294 117.266 419.517 115.059 419.749C114.052 419.861 112.953 419.992 111.905 420.134C110.857 420.275 109.618 420.599 108.459 420.74C108.338 420.74 108.348 420.952 108.459 420.932C109.547 420.831 110.666 420.932 111.764 420.882L115.08 420.76C117.286 420.69 119.493 420.639 121.71 420.548C126.134 420.356 130.538 420.214 134.962 420.184C135.213 420.174 135.193 419.84 134.962 419.81Z" fill="#263238"/>
<path d="M74.3382 349.819C54.416 371.222 9.84532 448.128 25.1725 462.939C40.4996 477.75 136.826 478.033 153.987 478.033C161.797 478.033 145.794 426.473 137.42 425.462C130.447 424.602 79.7496 422.954 78.7217 420.892C77.5528 418.567 84.1734 399.803 90.0281 368.108C96.3061 334.128 83.1052 340.366 74.3382 349.819Z" fill="#F7A9A0"/>
<path d="M165.213 414.846C182.525 412.42 187.382 414.472 200.875 404.645C209.753 398.195 217.664 401.117 212.605 411.358C204.312 428.12 182.626 435.946 174.312 436.492L165.213 414.846Z" fill="#F7A9A0"/>
<path d="M119.221 431.568C119.221 431.568 138.68 420.73 156.869 416.312C169.455 413.279 198.88 408.477 224.466 437.543C232.527 446.703 232.96 459.653 220.596 451.919C210.993 445.914 205.823 439.919 199.374 438.109C199.374 438.109 202.911 456.519 196.069 462.676C190.088 468.057 183.734 473.003 177.053 477.477C175.953 476.438 174.923 475.327 173.97 474.151C173.97 474.151 167.037 479.297 153.987 478.053L119.221 431.568Z" fill="#F7A9A0"/>
<path d="M169.344 415.331C175.391 418.476 187.997 425.36 196.391 434.601C205.702 444.863 220.888 467.155 213.27 473.979C207.677 478.973 201.178 470.946 201.178 470.946C201.178 470.946 205.521 481.491 199.485 484.898C193.983 488.002 189.297 481.511 189.297 481.511C189.297 481.511 190.829 488.366 184.964 490.337C177.91 492.703 175.834 477.962 166.613 474.161C164.507 473.332 169.344 415.331 169.344 415.331Z" fill="#F7A9A0"/>
<path d="M183.654 442.81C188.833 446.703 198.326 458.562 200.946 470.845C201.006 471.128 200.835 471.32 200.724 471.078C196.172 461.024 190.42 451.563 183.593 442.901C183.513 442.841 183.603 442.76 183.654 442.81Z" fill="#263238"/>
<path d="M173.889 452.415C178 456.236 187.241 468.894 189.478 481.44C189.528 481.713 189.337 481.895 189.236 481.653C185.21 471.374 180.03 461.589 173.798 452.485C173.738 452.415 173.798 452.354 173.889 452.415Z" fill="#263238"/>
<path d="M157.816 478.225C159.867 478.2 161.914 478.038 163.943 477.74C165.974 477.5 167.958 476.955 169.828 476.123H169.878C171.875 477.956 173.682 479.989 175.27 482.188C176.069 483.293 176.796 484.448 177.446 485.646C178.056 486.837 178.86 487.916 179.824 488.841C180.778 489.75 182.018 490.297 183.331 490.388C184.642 490.404 185.907 489.907 186.858 489.003C187.779 488.07 188.403 486.884 188.652 485.596C188.937 484.299 189.032 482.967 188.934 481.643L188.874 480.773L189.418 481.45C190.728 483.216 192.552 484.53 194.638 485.211C195.678 485.489 196.772 485.489 197.812 485.211C198.849 484.948 199.792 484.398 200.533 483.624C201.943 482.006 202.175 479.641 202.034 477.477C201.862 475.265 201.398 473.086 200.654 470.997L200.059 469.268L201.218 470.683C202.597 472.453 204.4 473.844 206.458 474.727C207.472 475.142 208.573 475.298 209.662 475.182C210.739 475.034 211.761 474.617 212.635 473.969C213.483 473.298 214.109 472.385 214.429 471.351C214.744 470.289 214.873 469.181 214.812 468.075C214.67 465.819 214.191 463.597 213.391 461.483C211.77 457.215 209.671 453.144 207.133 449.351C204.633 445.524 201.914 441.845 198.991 438.332L198.084 437.25L199.485 437.674C201.06 438.2 202.573 438.895 203.999 439.747C205.41 440.562 206.784 441.439 208.121 442.375C210.801 444.226 213.29 446.328 215.87 448.239C218.375 450.231 221.1 451.927 223.992 453.294C225.403 453.86 227.015 454.305 228.244 453.577C229.474 452.849 229.847 451.252 229.746 449.736C229.634 448.171 229.27 446.634 228.668 445.186C228.027 443.733 227.244 442.348 226.33 441.051C224.468 438.431 222.37 435.987 220.062 433.752C217.764 431.497 215.338 429.377 212.796 427.403C210.272 425.411 207.608 423.603 204.826 421.994L204.382 421.741L204.745 421.377C207.684 418.553 210.175 415.293 212.131 411.712C213.1 409.951 213.626 407.98 213.663 405.97C213.665 404.994 213.411 404.035 212.927 403.189C212.684 402.783 212.363 402.429 211.982 402.148C211.602 401.867 211.17 401.664 210.71 401.552C208.741 401.257 206.73 401.642 205.007 402.643C203.189 403.562 201.42 404.575 199.706 405.676C196.29 407.88 192.945 410.458 188.934 411.742C186.956 412.317 184.934 412.727 182.888 412.966C180.872 413.249 178.807 413.491 176.771 413.744C172.74 414.24 168.629 414.755 164.578 415.422C156.452 416.617 148.476 418.677 140.786 421.569C148.449 418.579 156.408 416.417 164.528 415.119C168.558 414.411 172.64 413.835 176.711 413.289L182.757 412.45C184.784 412.215 186.787 411.802 188.743 411.217C192.632 409.983 195.907 407.436 199.354 405.151C201.087 404.028 202.85 402.967 204.695 402.017C206.562 400.925 208.747 400.514 210.882 400.854C211.971 401.128 212.911 401.817 213.502 402.775C214.048 403.721 214.337 404.795 214.338 405.889C214.318 408.011 213.775 410.095 212.756 411.955C210.785 415.622 208.259 418.961 205.269 421.852L205.198 421.246C208.011 422.861 210.705 424.675 213.26 426.675C215.835 428.662 218.294 430.795 220.626 433.064C222.986 435.323 225.132 437.797 227.035 440.455C227.991 441.799 228.811 443.235 229.484 444.741C230.134 446.288 230.528 447.93 230.653 449.604C230.72 450.478 230.621 451.356 230.361 452.192C230.085 453.083 229.493 453.842 228.698 454.325C227.895 454.774 226.965 454.937 226.058 454.791C225.213 454.683 224.386 454.462 223.599 454.133C220.617 452.769 217.811 451.044 215.245 448.998C212.635 447.036 210.207 444.954 207.546 443.114C206.236 442.194 204.886 441.314 203.516 440.515C202.173 439.686 200.744 439.008 199.253 438.493L199.706 437.765C202.633 441.313 205.355 445.026 207.859 448.886C210.412 452.741 212.518 456.876 214.137 461.21C214.955 463.4 215.44 465.7 215.578 468.035C215.635 469.227 215.488 470.42 215.144 471.563C214.786 472.732 214.083 473.764 213.129 474.525C212.153 475.25 211.008 475.713 209.804 475.87C208.604 475.988 207.395 475.815 206.277 475.364C204.109 474.424 202.213 472.95 200.764 471.078L201.329 470.764C202.082 472.914 202.55 475.154 202.719 477.427C202.803 478.576 202.735 479.732 202.518 480.864C202.306 482.026 201.792 483.111 201.026 484.008C200.199 484.851 199.161 485.455 198.021 485.757C196.881 486.06 195.681 486.049 194.547 485.727C192.348 485 190.426 483.609 189.045 481.744L189.529 481.552C189.623 482.938 189.515 484.331 189.206 485.687C188.926 487.083 188.222 488.358 187.191 489.336C186.146 490.306 184.764 490.826 183.341 490.782C181.932 490.673 180.606 490.072 179.593 489.083C178.614 488.118 177.8 486.998 177.184 485.767C176.554 484.575 175.851 483.424 175.078 482.32C173.528 480.105 171.759 478.052 169.798 476.193H169.878C167.985 477.007 165.981 477.532 163.933 477.75C161.906 478.039 159.863 478.198 157.816 478.225Z" fill="#263238"/>
<path d="M43.1096 387.286L84.5966 402.279C84.5966 402.279 94.4117 372.961 95.0868 354.358C95.762 335.756 84.7377 337.636 72.2422 350.769C59.7467 363.902 43.1096 387.286 43.1096 387.286Z" fill="#FFC727"/>
<path d="M95.0565 354.55C94.8148 356.071 94.3567 357.548 93.6961 358.938C93.08 360.344 92.2617 361.652 91.2675 362.82C91.5077 361.303 91.9659 359.828 92.6279 358.443C93.2476 357.035 94.0655 355.725 95.0565 354.55ZM49.4479 389.581L50.5463 389.976C51.1538 388.67 51.5745 387.285 51.7959 385.861C50.8361 386.979 50.0451 388.233 49.4479 389.581ZM75.5675 384.011C76.0784 385.454 76.7946 386.817 77.6938 388.055C77.5709 386.525 77.2316 385.02 76.6861 383.586C76.1633 382.146 75.4443 380.785 74.5498 379.542C74.6735 381.073 75.0163 382.578 75.5675 384.011ZM63.1123 363.174C62.2118 363.513 61.3363 363.915 60.4923 364.377L59.8172 365.227C61.0883 365.051 62.3357 364.732 63.5356 364.276C64.9767 363.764 66.3349 363.042 67.5664 362.133C66.0399 362.266 64.5402 362.617 63.1123 363.174Z" fill="white"/>
<path d="M85.1206 394.01C78.8426 391.3 61.5807 384.476 49.7604 381.584C49.6898 381.584 49.5891 381.837 49.6495 381.867C59.0917 385.831 78.4698 392.301 84.9191 394.424C85.1206 394.464 85.2819 394.06 85.1206 394.01Z" fill="#263238"/>
<path d="M93.1822 378.238C93.1822 378.177 93.1116 378.147 93.0814 378.238C92.3357 379.674 91.6706 381.129 91.066 382.616C91.7915 379.36 92.4398 376.098 93.0109 372.829C93.0109 372.805 93.0013 372.782 92.9843 372.765C92.9673 372.748 92.9442 372.738 92.9202 372.738C92.8961 372.738 92.8731 372.748 92.8561 372.765C92.839 372.782 92.8295 372.805 92.8295 372.829C90.0482 382.424 87.0251 391.977 84.4454 401.632C83.3873 401.582 82.3192 401.511 81.2711 401.37C81.2376 401.367 81.2044 401.377 81.1776 401.398C81.1507 401.418 81.1319 401.447 81.1246 401.48C81.1173 401.513 81.122 401.548 81.1378 401.577C81.1536 401.607 81.1794 401.63 81.2107 401.643C82.3595 401.926 83.4881 402.29 84.6066 402.654C84.734 402.714 84.8797 402.722 85.0132 402.677C85.1466 402.632 85.2573 402.536 85.3221 402.411C87.3413 396.925 89.024 391.32 90.3606 385.628C90.7939 384.759 91.2172 383.889 91.59 382.99C92.2399 381.449 92.7722 379.86 93.1822 378.238Z" fill="#263238"/>
<path d="M95.4698 342.216C95.6713 344.471 104.025 360.111 114.022 361.071C117.276 361.385 119.745 343.622 119.745 343.622L120.229 342.348L126.94 324.574L107.421 307.64L104.579 305.366C104.579 305.366 103.058 310.35 101.234 316.577C101.143 316.861 101.052 317.154 100.972 317.457C100.891 317.76 100.74 318.144 100.659 318.468C100.367 319.398 100.085 320.348 99.813 321.299C99.6114 322.017 99.4099 322.714 99.2184 323.483C99.027 324.251 98.8254 324.989 98.6138 325.757C96.7193 333.32 95.4093 341.205 95.4698 342.216Z" fill="#F7A9A0"/>
<path d="M101.244 316.567C102.354 321.989 104.628 327.104 107.909 331.554C111.189 336.005 115.397 339.685 120.239 342.338L126.95 324.564L107.431 307.63L104.589 305.355C104.589 305.355 103.058 310.34 101.244 316.567Z" fill="#263238"/>
<path d="M156.053 298.804C154.34 332.167 134.256 334.856 127.102 334.472C120.602 334.128 98.513 332.137 96.7798 298.814C95.0465 265.492 111.039 255.766 125.943 255.766C140.847 255.766 157.766 265.492 156.053 298.804Z" fill="#F7A9A0"/>
<path d="M151.629 292.809C150.882 292.638 150.145 292.426 149.422 292.172C148.614 292.055 147.867 291.675 147.296 291.09C147.154 290.871 147.087 290.611 147.105 290.351C147.123 290.09 147.225 289.842 147.397 289.645C147.801 289.312 148.287 289.092 148.804 289.009C149.321 288.925 149.85 288.981 150.339 289.169C151.382 289.407 152.3 290.023 152.919 290.898C153.052 291.105 153.122 291.346 153.119 291.592C153.116 291.838 153.042 292.078 152.904 292.282C152.766 292.485 152.572 292.644 152.346 292.738C152.119 292.832 151.87 292.856 151.629 292.809Z" fill="#263238"/>
<path d="M130.467 291.394C131.243 291.394 131.969 291.191 132.734 291.08C133.553 291.086 134.351 290.819 135.002 290.322C135.176 290.126 135.281 289.878 135.299 289.616C135.317 289.355 135.248 289.094 135.103 288.876C134.754 288.486 134.307 288.197 133.809 288.038C133.311 287.88 132.78 287.859 132.271 287.976C131.204 288.057 130.203 288.528 129.459 289.301C129.302 289.489 129.202 289.719 129.172 289.962C129.141 290.206 129.182 290.453 129.288 290.674C129.395 290.895 129.563 291.081 129.772 291.209C129.981 291.336 130.222 291.4 130.467 291.394Z" fill="#263238"/>
<path d="M133.803 299.633C133.803 299.542 133.611 299.734 133.611 299.825C133.611 302.1 133.148 304.688 131.062 305.345C130.991 305.345 130.991 305.477 131.062 305.467C133.581 305.244 134.125 301.776 133.803 299.633Z" fill="#263238"/>
<path d="M131.898 297.166C128.27 296.701 127.626 304.001 130.981 304.435C134.337 304.87 134.931 297.551 131.898 297.166Z" fill="#263238"/>
<path d="M130.467 297.419C129.792 297.773 129.107 298.43 128.331 298.43C127.555 298.43 126.829 297.611 126.316 296.823C126.316 296.742 126.195 296.823 126.185 296.893C126.043 298.289 126.447 299.775 127.928 300.118C129.409 300.462 130.366 299.279 130.84 297.904C130.901 297.732 130.709 297.278 130.467 297.419Z" fill="#263238"/>
<path d="M146.167 300.26C146.167 300.179 146.328 300.381 146.318 300.482C146.026 302.727 146.066 305.366 148.041 306.316C148.102 306.316 148.041 306.457 148.041 306.437C145.583 305.82 145.583 302.353 146.167 300.26Z" fill="#263238"/>
<path d="M148.404 298.096C152.052 298.177 151.629 305.497 148.253 305.426C144.877 305.355 145.341 298.036 148.404 298.096Z" fill="#263238"/>
<path d="M149.896 298.663C150.45 299.087 150.984 299.825 151.669 299.916C152.354 300.007 153.1 299.259 153.685 298.521C153.745 298.45 153.795 298.521 153.795 298.612C153.745 300.007 153.201 301.443 151.851 301.645C150.5 301.847 149.785 300.563 149.533 299.148C149.452 298.875 149.674 298.501 149.896 298.663Z" fill="#263238"/>
<path d="M132.12 317.073C132.583 317.669 133.027 318.468 133.833 318.65C134.667 318.746 135.512 318.664 136.312 318.407C136.329 318.399 136.349 318.397 136.368 318.402C136.386 318.407 136.402 318.418 136.413 318.434C136.424 318.45 136.429 318.469 136.427 318.488C136.425 318.508 136.417 318.526 136.403 318.539C136.022 318.941 135.539 319.231 135.006 319.377C134.473 319.523 133.911 319.52 133.379 319.368C132.937 319.189 132.558 318.882 132.291 318.485C132.023 318.089 131.879 317.622 131.878 317.144C131.868 317.002 132.049 316.941 132.12 317.073Z" fill="#263238"/>
<path d="M141.743 310.714C141.743 310.714 141.945 314.131 141.824 315.769C141.824 315.91 135.919 316.658 133.692 312.533C133.665 312.5 133.653 312.457 133.657 312.415C133.662 312.372 133.684 312.333 133.717 312.306C133.75 312.279 133.793 312.267 133.836 312.272C133.878 312.276 133.917 312.298 133.944 312.331C135.865 313.88 138.233 314.766 140.695 314.859C140.836 314.424 140.151 309.015 140.403 309.015C141.63 309.219 142.823 309.59 143.95 310.117C143.729 302.98 142.378 295.963 142.267 288.836C142.272 288.787 142.292 288.741 142.326 288.704C142.359 288.668 142.403 288.644 142.452 288.636C142.5 288.628 142.55 288.636 142.593 288.66C142.636 288.683 142.671 288.72 142.691 288.765C144.625 296.044 145.059 304.243 145.472 311.603C145.583 312.483 142.358 311.027 141.743 310.714Z" fill="#263238"/>
<path d="M97.1526 298.096C99.4321 297.608 101.546 296.534 103.288 294.98C105.029 293.426 106.339 291.444 107.089 289.23C135.546 288.532 144.958 270.82 144.958 270.82C150.42 285.732 155.297 288.29 156.093 290.534C156.093 290.534 158.461 277.604 154.158 267.746C150.349 259.022 140.574 249.68 125.197 251.661C116.48 252.784 109.144 260.356 109.144 260.356C109.144 260.356 99.7222 261.367 95.8627 268.97C89.3933 281.749 97.1526 298.096 97.1526 298.096Z" fill="#263238"/>
<path d="M145.391 269.688C144.356 273.406 142.409 276.805 139.728 279.575C137.046 282.361 133.85 284.597 130.316 286.157L127.615 287.168C126.698 287.481 125.761 287.673 124.834 287.926C122.98 288.413 121.089 288.751 119.181 288.937C117.276 289.109 115.362 289.078 113.457 289.149C111.563 288.977 109.668 288.846 107.784 288.644C109.688 288.583 111.573 288.644 113.457 288.583C115.331 288.391 117.216 288.32 119.07 288.057C122.78 287.563 126.407 286.57 129.852 285.105C133.283 283.643 136.415 281.559 139.093 278.958C141.822 276.349 143.968 273.189 145.391 269.688Z" fill="#263238"/>
<path d="M126.376 310.592C124.442 310.18 122.662 309.231 121.239 307.854C119.816 306.477 118.807 304.727 118.326 302.803C117.846 300.879 117.914 298.858 118.522 296.97C119.13 295.083 120.253 293.405 121.765 292.126C123.277 290.848 125.116 290.021 127.074 289.74C129.031 289.459 131.027 289.735 132.836 290.536C134.645 291.337 136.193 292.632 137.304 294.272C138.416 295.912 139.046 297.833 139.123 299.815C139.23 302.622 138.222 305.356 136.322 307.418C134.421 309.48 131.783 310.702 128.986 310.815C128.11 310.844 127.234 310.769 126.376 310.592ZM130.467 291.252C129.722 291.096 128.961 291.032 128.2 291.06C125.879 291.155 123.682 292.133 122.055 293.797C120.428 295.46 119.494 297.683 119.444 300.013C119.393 302.342 120.229 304.604 121.783 306.337C123.336 308.069 125.489 309.143 127.803 309.339C130.117 309.535 132.419 308.839 134.24 307.392C136.061 305.945 137.263 303.856 137.603 301.551C137.942 299.246 137.393 296.897 136.068 294.984C134.742 293.07 132.739 291.736 130.467 291.252Z" fill="#455A64"/>
<path d="M150.51 312.726C146.56 311.876 143.839 307.054 144.353 301.554C144.549 298.919 145.564 296.412 147.255 294.386C147.926 293.471 148.82 292.744 149.853 292.277C150.885 291.81 152.02 291.618 153.147 291.719C154.275 291.821 155.358 292.213 156.29 292.857C157.223 293.502 157.974 294.376 158.471 295.397C159.761 297.701 160.296 300.354 160.003 302.98C159.459 308.793 155.509 313.201 151.196 312.796C150.964 312.806 150.732 312.776 150.51 312.726ZM153.533 293.234C153.361 293.191 153.186 293.164 153.009 293.153C152.108 293.107 151.209 293.28 150.388 293.656C149.567 294.033 148.849 294.602 148.293 295.316C146.8 297.12 145.905 299.347 145.734 301.686C145.26 306.74 147.749 311.088 151.306 311.421C154.864 311.755 158.108 307.923 158.572 302.889C158.836 300.559 158.367 298.205 157.232 296.155C156.854 295.439 156.333 294.809 155.699 294.306C155.066 293.803 154.335 293.438 153.554 293.234H153.533Z" fill="#455A64"/>
<path d="M138.66 300.998L137.854 299.835C139.577 298.642 143.426 297.187 145.744 300.179L144.625 301.049C142.56 298.359 138.821 300.897 138.66 300.998Z" fill="#455A64"/>
<path d="M91.5698 299.32L90.3807 298.551C90.7334 297.995 93.948 293.112 97.1323 292.9C100.155 292.708 118.778 296.246 119.574 296.398L119.312 297.783C113.961 296.772 99.5206 294.154 97.223 294.315C95.127 294.457 92.4264 297.975 91.5698 299.32Z" fill="#455A64"/>
<path d="M102.171 299.168C102.171 299.168 96.4068 287.855 91.3884 289.776C86.3701 291.697 89.7056 307.398 94.8952 310.208C95.5365 310.615 96.2531 310.887 97.0019 311.008C97.7507 311.129 98.5163 311.097 99.2525 310.914C99.9887 310.731 100.68 310.4 101.286 309.942C101.891 309.483 102.398 308.907 102.775 308.247L102.171 299.168Z" fill="#F7A9A0"/>
<path d="M92.4566 294.255C92.3659 294.255 92.3357 294.356 92.4062 294.396C96.0339 296.489 97.5556 300.341 98.4524 304.243C97.5052 302.656 96.0642 301.665 93.9682 302.757C93.9462 302.772 93.9296 302.793 93.9209 302.818C93.9121 302.843 93.9117 302.87 93.9197 302.895C93.9277 302.92 93.9436 302.942 93.9651 302.957C93.9865 302.973 94.0124 302.98 94.0387 302.98C94.7445 302.857 95.4706 302.958 96.1169 303.268C96.7632 303.577 97.2976 304.081 97.6463 304.708C98.2217 305.758 98.6845 306.866 99.0268 308.014C99.1578 308.388 99.8028 308.287 99.7322 307.873C99.7275 307.843 99.7275 307.812 99.7322 307.782C100.498 302.878 97.6463 295.478 92.4566 294.255Z" fill="#263238"/>
<path d="M234.905 483.503C231.635 483.197 228.384 482.7 225.171 482.017C221.944 481.381 218.757 480.554 215.628 479.54C222.172 480.195 228.632 481.523 234.905 483.503Z" fill="#263238"/>
<path d="M262.94 474.879C262.547 471.007 262.456 467.135 262.436 463.263C262.408 459.381 262.576 455.501 262.94 451.636C263.304 455.501 263.472 459.381 263.444 463.263C263.423 467.135 263.333 471.007 262.94 474.879Z" fill="#263238"/>
<path d="M253.094 475.041C250.906 472.116 248.872 469.079 246.998 465.942C245.085 462.822 243.339 459.603 241.768 456.297C246.116 462.189 249.908 468.474 253.094 475.071V475.041Z" fill="#263238"/>
<path d="M217.785 457.166C220.022 458.895 222.188 460.705 224.345 462.525C226.501 464.344 228.607 466.205 230.713 468.085C232.819 469.966 234.895 471.866 236.931 473.817L239.954 476.739C240.962 477.75 241.969 478.761 242.977 479.772C241.859 478.913 240.77 478.013 239.672 477.134L236.427 474.414C234.271 472.604 232.164 470.734 230.058 468.853C227.952 466.973 225.876 465.072 223.841 463.121C221.805 461.17 219.75 459.209 217.785 457.166Z" fill="#263238"/>
<path d="M281.24 481.733C284.367 480.725 287.55 479.898 290.772 479.257C293.988 478.568 297.242 478.072 300.517 477.77C294.242 479.747 287.783 481.075 281.24 481.733Z" fill="#263238"/>
<path d="M296.738 455.185C294.783 457.207 292.707 459.178 290.692 461.119C288.676 463.06 286.56 464.961 284.474 466.852C282.388 468.742 280.262 470.602 278.095 472.412L274.861 475.132C273.752 476.011 272.674 476.911 271.545 477.77C272.553 476.759 273.561 475.748 274.569 474.737L277.592 471.816C279.607 469.864 281.723 467.974 283.809 466.083C285.895 464.193 288.021 462.332 290.188 460.523C292.354 458.713 294.511 456.914 296.738 455.185Z" fill="#263238"/>
<path d="M388.368 473.726L391.23 473.342L386.595 361.071L353.351 314.09L350.872 316.133L383.934 362.901L388.368 473.726Z" fill="#263238"/>
<path d="M389.326 361.991C389.326 362.791 389.089 363.573 388.646 364.238C388.203 364.903 387.574 365.421 386.837 365.727C386.101 366.034 385.29 366.114 384.508 365.958C383.727 365.802 383.008 365.416 382.445 364.851C381.881 364.285 381.497 363.565 381.341 362.78C381.186 361.996 381.266 361.183 381.571 360.444C381.876 359.705 382.393 359.073 383.055 358.629C383.718 358.185 384.498 357.947 385.295 357.947C386.364 357.947 387.389 358.373 388.145 359.132C388.901 359.89 389.326 360.919 389.326 361.991Z" fill="#FFC727"/>
<path d="M356.505 315.526C356.505 316.326 356.268 317.108 355.826 317.773C355.383 318.438 354.753 318.956 354.017 319.262C353.28 319.568 352.47 319.648 351.688 319.492C350.906 319.336 350.188 318.951 349.624 318.385C349.06 317.82 348.676 317.099 348.521 316.315C348.365 315.53 348.445 314.717 348.75 313.978C349.055 313.239 349.572 312.608 350.235 312.164C350.897 311.719 351.677 311.482 352.474 311.482C353.543 311.482 354.568 311.908 355.324 312.666C356.08 313.425 356.505 314.453 356.505 315.526Z" fill="#FFC727"/>
<path d="M324.843 317.113L340.513 341.145L350.872 331.672L357.18 325.899L345.42 307.903L337.62 311.391L324.843 317.113Z" fill="#FFC727"/>
<path opacity="0.1" d="M324.843 317.113L340.513 341.145L350.872 331.672L337.62 311.391L324.843 317.113Z" fill="black"/>
<path d="M295.881 323.371L323.22 365.267L349.33 340.619L328.843 309.217L295.881 323.371Z" fill="#FFC727"/>
<path d="M363.649 483.513H412.936L409.903 467.984H366.673L363.649 483.513Z" fill="#FFC727"/>
<path d="M202.86 219.461C202.273 225.101 200.135 230.467 196.685 234.959C193.235 239.451 188.609 242.893 183.323 244.901C178.037 246.909 172.298 247.404 166.748 246.331C161.198 245.257 156.054 242.657 151.891 238.822L136.624 241.117L144.263 227.873C142.356 223.213 141.635 218.151 142.167 213.143C142.558 209.124 143.738 205.223 145.638 201.664C147.539 198.104 150.122 194.958 153.24 192.404C156.358 189.851 159.948 187.942 163.805 186.786C167.661 185.631 171.707 185.253 175.71 185.673C179.712 186.093 183.593 187.303 187.127 189.234C190.662 191.165 193.781 193.778 196.304 196.923C198.828 200.069 200.706 203.684 201.832 207.561C202.957 211.437 203.306 215.499 202.86 219.512V219.461Z" fill="white"/>
<path d="M202.861 219.461C202.272 225.101 200.141 230.469 196.703 234.97C195.024 237.245 193.005 239.246 190.718 240.904C186.185 244.328 180.797 246.427 175.149 246.97C173.738 247.093 172.321 247.12 170.906 247.051C169.489 247.019 168.077 246.87 166.684 246.606C161.05 245.577 155.815 242.99 151.569 239.135L151.931 239.246L136.685 241.592L135.576 241.764L136.131 240.753L143.729 227.489V228.014C141.937 223.624 141.175 218.879 141.502 214.146C141.828 209.413 143.235 204.818 145.613 200.717C147.989 196.634 151.255 193.144 155.166 190.506C160.031 187.261 165.715 185.471 171.556 185.343C177.397 185.216 183.153 186.757 188.155 189.786C193.156 192.816 197.195 197.209 199.803 202.454C202.41 207.7 203.478 213.58 202.881 219.411L202.861 219.461ZM202.861 219.461C203.339 214.854 202.759 210.198 201.165 205.85C199.571 201.502 197.006 197.578 193.666 194.38C190.326 191.181 186.3 188.793 181.897 187.398C177.494 186.002 172.831 185.637 168.266 186.331C163.739 187.007 159.426 188.716 155.66 191.325C151.93 193.95 148.814 197.359 146.53 201.314C144.285 205.284 142.963 209.711 142.66 214.265C142.378 218.815 143.112 223.37 144.807 227.6L144.918 227.873L144.777 228.126L137.088 241.339L136.544 240.53L151.82 238.387H152.032L152.183 238.529C156.259 242.359 161.319 244.971 166.795 246.071C168.159 246.355 169.544 246.524 170.937 246.576C172.325 246.677 173.72 246.677 175.108 246.576C177.896 246.357 180.639 245.752 183.261 244.777C185.894 243.818 188.373 242.476 190.617 240.793C191.746 239.961 192.823 239.059 193.842 238.094C194.831 237.099 195.757 236.042 196.613 234.93C200.08 230.452 202.243 225.097 202.861 219.461Z" fill="#263238"/>
<path d="M189.529 217.207C189.529 217.941 189.312 218.658 188.905 219.268C188.499 219.878 187.921 220.354 187.246 220.635C186.57 220.915 185.826 220.989 185.109 220.846C184.391 220.703 183.732 220.349 183.215 219.83C182.698 219.311 182.346 218.65 182.203 217.931C182.06 217.211 182.134 216.465 182.414 215.787C182.693 215.109 183.167 214.529 183.776 214.122C184.384 213.714 185.099 213.496 185.83 213.496C186.316 213.495 186.798 213.59 187.247 213.776C187.696 213.962 188.105 214.235 188.448 214.58C188.792 214.925 189.064 215.335 189.25 215.785C189.435 216.236 189.53 216.719 189.529 217.207Z" fill="#263238"/>
<path d="M176.287 217.207C176.287 217.941 176.07 218.659 175.663 219.269C175.257 219.88 174.678 220.355 174.002 220.636C173.326 220.916 172.582 220.989 171.864 220.845C171.146 220.701 170.487 220.347 169.971 219.827C169.454 219.307 169.102 218.645 168.961 217.924C168.819 217.204 168.894 216.458 169.175 215.78C169.457 215.102 169.932 214.523 170.542 214.117C171.151 213.71 171.867 213.494 172.599 213.496C173.084 213.496 173.565 213.592 174.013 213.779C174.461 213.966 174.868 214.239 175.211 214.584C175.553 214.928 175.825 215.338 176.01 215.788C176.194 216.238 176.289 216.72 176.287 217.207Z" fill="#263238"/>
<path d="M163.056 217.207C163.056 217.941 162.839 218.658 162.433 219.268C162.027 219.878 161.449 220.354 160.773 220.635C160.097 220.915 159.354 220.989 158.636 220.846C157.919 220.703 157.26 220.349 156.743 219.83C156.226 219.311 155.873 218.65 155.731 217.931C155.588 217.211 155.661 216.465 155.941 215.787C156.221 215.109 156.695 214.529 157.303 214.122C157.911 213.714 158.626 213.496 159.358 213.496C159.844 213.495 160.325 213.59 160.775 213.776C161.224 213.962 161.632 214.235 161.976 214.58C162.32 214.925 162.592 215.335 162.777 215.785C162.963 216.236 163.057 216.719 163.056 217.207Z" fill="#263238"/>
<path d="M254.173 260.629H172.005V306.093H254.173V260.629Z" fill="#455A64"/>
<path d="M238.332 306.093H254.173V317.588L238.332 306.093Z" fill="#455A64"/>
<path d="M219.256 269.02H182.001V270.041H219.256V269.02Z" fill="white"/>
<path d="M244.569 274.55H182.001V275.571H244.569V274.55Z" fill="white"/>
<path d="M244.569 280.08H182.001V281.102H244.569V280.08Z" fill="white"/>
<path d="M232.578 285.611H182.001V286.632H232.578V285.611Z" fill="white"/>
<path d="M244.569 291.141H182.001V292.162H244.569V291.141Z" fill="white"/>
<path d="M205.017 296.671H182.001V297.692H205.017V296.671Z" fill="white"/>
<path d="M281.663 322.633H200.049V356.36H281.663V322.633Z" fill="#FFC727"/>
<path d="M281.663 367.188V356.35H265.277L281.663 367.188Z" fill="#FFC727"/>
<path d="M271.858 331.025H209.975V332.046H271.858V331.025Z" fill="white"/>
<path d="M245.285 336.555H209.975V337.576H245.285V336.555Z" fill="white"/>
<path d="M257.7 342.085H209.975V343.106H257.7V342.085Z" fill="white"/>
<path d="M226.602 347.615H209.975V348.636H226.602V347.615Z" fill="white"/>
<path d="M223.166 487.355H214.973V492.723H223.166V487.355Z" fill="#EBEBEB"/>
<path d="M233.787 487.001H225.594V492.369H233.787V487.001Z" fill="#EBEBEB"/>
<path d="M244.418 486.647H236.226V492.015H244.418V486.647Z" fill="#EBEBEB"/>
<path d="M255.039 486.293H246.847V491.661H255.039V486.293Z" fill="#EBEBEB"/>
<path d="M265.671 485.939H257.478V491.308H265.671V485.939Z" fill="#EBEBEB"/>
<path d="M276.292 485.585H268.099V490.954H276.292V485.585Z" fill="#EBEBEB"/>
<path d="M286.913 485.232H278.72V490.6H286.913V485.232Z" fill="#EBEBEB"/>
<path d="M297.544 484.878H289.352V490.246H297.544V484.878Z" fill="#EBEBEB"/>
<path d="M308.165 484.524H299.973V489.892H308.165V484.524Z" fill="#EBEBEB"/>
<path d="M310.171 495.817H212.968V489.275L310.171 486.556V495.817Z" fill="#DBDBDB"/>
<path d="M382.665 473.201H247.23L268.764 372.041H404.199L382.665 473.201Z" fill="#EBEBEB"/>
<path d="M387.673 473.201H252.238L273.773 372.041H409.208L387.673 473.201Z" fill="#DBDBDB"/>
<path d="M339.31 422.437C342.985 419.03 343.612 413.715 340.711 410.566C337.811 407.417 332.48 407.625 328.806 411.032C325.131 414.438 324.504 419.753 327.404 422.903C330.305 426.052 335.636 425.843 339.31 422.437Z" fill="white"/>
<path d="M349.37 499.618H282.761V494.421L349.37 492.268V499.618Z" fill="#EBEBEB"/>
<path d="M367.479 499.608H331.715L310.171 442.921H345.934L367.479 499.608Z" fill="#EBEBEB"/>
<path d="M373.364 499.608H337.6L316.066 442.921H351.829L373.364 499.608Z" fill="#A6A6A6"/>
<path d="M204.029 500.993H135.395C129.54 500.993 138.015 484.251 159.408 477.831C180.802 471.411 210.821 494.715 204.029 500.993Z" fill="#DBDBDB"/>
<path d="M177.124 500.993C177.179 499.085 177.494 497.194 178.061 495.372C178.618 493.535 179.396 491.773 180.379 490.125C181.357 488.467 182.584 486.97 184.017 485.686C185.433 484.396 187.068 483.369 188.843 482.654C188.108 483.26 187.271 483.664 186.596 484.342L185.589 485.242L184.581 486.253C183.307 487.585 182.192 489.061 181.255 490.65C180.304 492.24 179.489 493.908 178.817 495.635C178.133 497.381 177.567 499.171 177.124 500.993Z" fill="#263238"/>
<path d="M185.266 485.06C187.299 485.718 189.28 486.529 191.191 487.486C193.115 488.439 194.961 489.541 196.714 490.782C198.492 492.015 200.101 493.476 201.5 495.129C202.187 495.976 202.781 496.895 203.274 497.869C203.745 498.846 204.016 499.909 204.07 500.993C203.829 499.965 203.413 498.987 202.84 498.101C202.285 497.218 201.64 496.395 200.916 495.645C199.447 494.152 197.845 492.798 196.129 491.601C194.426 490.367 192.622 489.265 190.818 488.173C189.912 487.628 188.995 487.102 188.057 486.596C187.12 486.091 186.203 485.575 185.266 485.06Z" fill="#263238"/>
<path opacity="0.6" d="M76.6557 467.185C76.6557 467.185 101.143 455.862 101.143 440.687C101.143 425.512 69.3801 415.746 69.3801 403.887C69.3801 392.028 83.236 385.042 83.236 385.042C83.236 385.042 61.3488 392.544 61.3488 407.547C61.3488 422.55 82.2888 432.71 84.2941 442.264C87.0754 455.518 76.6557 467.185 76.6557 467.185Z" fill="#DBDBDB"/>
<path opacity="0.6" d="M77.865 467.185C77.865 467.185 53.3677 458.289 53.3677 446.359C53.3677 434.429 85.1204 426.746 85.1204 417.414C85.1204 408.083 71.2746 402.603 71.2746 402.603C71.2746 402.603 93.182 408.497 93.182 420.295C93.182 432.094 69.1383 440.202 67.4151 449.786C65.7121 459.178 77.865 467.185 77.865 467.185Z" fill="#DBDBDB"/>
<path d="M88.5567 505.35H65.2587V509H88.5567V505.35Z" fill="#455A64"/>
<path d="M88.5567 505.35H65.2587V507.757H88.5567V505.35Z" fill="#263238"/>
<path d="M37.6072 495.534C39.0214 497.635 41.0087 499.284 43.3318 500.282C45.6548 501.281 48.2154 501.587 50.7074 501.165C51.5134 501.016 52.3032 500.789 53.0654 500.487C54.2247 500.032 55.3299 499.449 56.3606 498.749L53.3979 494.341C52.8519 494.735 52.2679 495.074 51.6546 495.352C46.1022 497.879 42.5853 493.481 41.9001 492.48C38.7661 487.971 37.5871 477.69 40.7815 473.726C40.9931 473.433 41.9303 472.968 45.6789 473.777C46.3743 473.929 47.1603 474.101 48.047 474.353C48.7355 474.588 49.4492 474.741 50.1733 474.808L50.2741 472.17L50.526 469.531C50.2841 469.531 49.9113 469.379 49.4175 469.238C47.6831 468.728 45.9105 468.359 44.117 468.136C41.3559 467.842 38.4638 468.136 36.6902 470.37C31.4703 476.83 33.6067 489.892 37.6072 495.534Z" fill="#455A64"/>
<path d="M53.4181 494.341C52.8721 494.735 52.288 495.074 51.6747 495.352L53.0855 500.498C54.2448 500.042 55.35 499.459 56.3807 498.759L53.4181 494.341Z" fill="#263238"/>
<path d="M44.1573 468.136L45.7193 473.777C46.4146 473.929 47.2006 474.101 48.0874 474.353C48.7759 474.588 49.4895 474.741 50.2136 474.808L50.3144 472.17L50.5663 469.531C50.3245 469.531 49.9516 469.379 49.4578 469.238C47.7235 468.728 45.9509 468.359 44.1573 468.136Z" fill="#263238"/>
<path d="M107.905 461.241C107.905 461.241 105.103 485.06 100.276 495.099C95.4493 505.138 88.7179 506.22 84.5259 506.22H69.2894C65.1075 506.22 58.3659 505.098 53.539 495.099C48.7121 485.1 45.9208 461.241 45.9208 461.241H107.905Z" fill="#455A64"/>
<path d="M56.0381 468.045C56.0381 468.591 55.8767 469.124 55.5745 469.578C55.2722 470.032 54.8425 470.386 54.3398 470.595C53.8372 470.803 53.284 470.858 52.7504 470.752C52.2167 470.645 51.7265 470.382 51.3418 469.996C50.9571 469.61 50.6951 469.118 50.5889 468.583C50.4828 468.048 50.5372 467.493 50.7455 466.988C50.9537 466.484 51.3063 466.053 51.7587 465.75C52.2111 465.447 52.743 465.285 53.2871 465.285C53.6483 465.285 54.0061 465.356 54.3398 465.495C54.6736 465.633 54.9769 465.837 55.2323 466.093C55.4878 466.349 55.6904 466.654 55.8287 466.988C55.9669 467.323 56.0381 467.682 56.0381 468.045ZM77.5727 464.708C77.0286 464.708 76.4967 464.87 76.0443 465.174C75.5919 465.477 75.2393 465.908 75.0311 466.412C74.8228 466.917 74.7684 467.471 74.8745 468.007C74.9807 468.542 75.2427 469.034 75.6274 469.42C76.0121 469.806 76.5023 470.069 77.036 470.175C77.5696 470.282 78.1228 470.227 78.6255 470.018C79.1281 469.809 79.5578 469.456 79.8601 469.002C80.1624 468.548 80.3237 468.014 80.3237 467.468C80.3237 466.736 80.0339 466.034 79.5179 465.517C79.002 464.999 78.3023 464.708 77.5727 464.708ZM77.5727 499.375C77.0286 499.375 76.4967 499.537 76.0443 499.841C75.5919 500.144 75.2393 500.575 75.0311 501.079C74.8228 501.584 74.7684 502.138 74.8745 502.674C74.9807 503.209 75.2427 503.701 75.6274 504.087C76.0121 504.473 76.5023 504.736 77.036 504.842C77.5696 504.949 78.1228 504.894 78.6255 504.685C79.1281 504.476 79.5578 504.123 79.8601 503.669C80.1624 503.215 80.3237 502.681 80.3237 502.135C80.3237 501.403 80.0339 500.701 79.5179 500.184C79.002 499.666 78.3023 499.375 77.5727 499.375ZM97.5252 483.756C96.9811 483.756 96.4492 483.917 95.9968 484.221C95.5444 484.524 95.1918 484.955 94.9836 485.459C94.7753 485.964 94.7209 486.519 94.827 487.054C94.9332 487.589 95.1952 488.081 95.5799 488.467C95.9646 488.853 96.4548 489.116 96.9885 489.222C97.5221 489.329 98.0753 489.274 98.5779 489.065C99.0806 488.857 99.5103 488.503 99.8126 488.049C100.115 487.595 100.276 487.061 100.276 486.516C100.276 485.784 99.9864 485.081 99.4704 484.564C98.9545 484.046 98.2548 483.756 97.5252 483.756ZM66.9817 491.894C66.4376 491.894 65.9057 492.056 65.4533 492.359C65.0009 492.662 64.6483 493.093 64.4401 493.598C64.2319 494.102 64.1774 494.657 64.2836 495.192C64.3897 495.728 64.6517 496.22 65.0365 496.606C65.4212 496.992 65.9114 497.255 66.445 497.361C66.9787 497.468 67.5318 497.413 68.0345 497.204C68.5372 496.995 68.9668 496.641 69.2691 496.187C69.5714 495.734 69.7328 495.2 69.7328 494.654C69.7328 493.922 69.4429 493.22 68.927 492.702C68.4111 492.185 67.7114 491.894 66.9817 491.894ZM99.2282 464.708C98.6841 464.708 98.1522 464.87 97.6998 465.174C97.2474 465.477 96.8948 465.908 96.6866 466.412C96.4784 466.917 96.4239 467.471 96.53 468.007C96.6362 468.542 96.8982 469.034 97.2829 469.42C97.6677 469.806 98.1578 470.069 98.6915 470.175C99.2251 470.282 99.7783 470.227 100.281 470.018C100.784 469.809 101.213 469.456 101.516 469.002C101.818 468.548 101.979 468.014 101.979 467.468C101.979 466.736 101.689 466.034 101.173 465.517C100.658 464.999 99.9578 464.708 99.2282 464.708ZM77.2099 483.311C76.6658 483.311 76.1339 483.473 75.6815 483.776C75.2291 484.079 74.8765 484.51 74.6683 485.014C74.4601 485.519 74.4056 486.074 74.5117 486.609C74.6179 487.145 74.8799 487.636 75.2646 488.022C75.6494 488.408 76.1396 488.671 76.6732 488.778C77.2069 488.884 77.76 488.83 78.2627 488.621C78.7654 488.412 79.195 488.058 79.4973 487.604C79.7996 487.15 79.9609 486.617 79.9609 486.071C79.961 485.344 79.6753 484.646 79.1659 484.13C78.6565 483.613 77.9645 483.319 77.2401 483.311H77.2099ZM56.3505 483.745C55.8064 483.745 55.2745 483.907 54.8221 484.211C54.3697 484.514 54.0171 484.945 53.8089 485.449C53.6007 485.954 53.5462 486.508 53.6523 487.044C53.7585 487.579 54.0205 488.071 54.4052 488.457C54.79 488.843 55.2801 489.106 55.8138 489.212C56.3474 489.319 56.9006 489.264 57.4033 489.055C57.9059 488.846 58.3356 488.493 58.6379 488.039C58.9402 487.585 59.1015 487.051 59.1015 486.505C59.0989 485.78 58.812 485.086 58.3029 484.571C57.7938 484.056 57.1033 483.763 56.3807 483.756L56.3505 483.745ZM88.5264 474.505C87.9823 474.505 87.4504 474.667 86.998 474.97C86.5456 475.273 86.193 475.704 85.9848 476.209C85.7766 476.713 85.7221 477.268 85.8282 477.803C85.9344 478.339 86.1964 478.831 86.5811 479.217C86.9659 479.603 87.456 479.865 87.9897 479.972C88.5233 480.078 89.0765 480.024 89.5792 479.815C90.0819 479.606 90.5115 479.252 90.8138 478.798C91.1161 478.344 91.2774 477.811 91.2774 477.265C91.2775 476.538 90.9918 475.841 90.4824 475.324C89.973 474.807 89.281 474.513 88.5566 474.505H88.5264ZM87.7807 492.349C87.2362 492.347 86.7033 492.507 86.2496 492.809C85.7958 493.111 85.4417 493.542 85.2319 494.046C85.0221 494.55 84.9662 495.105 85.0712 495.641C85.1762 496.177 85.4375 496.67 85.8218 497.057C86.2061 497.444 86.6963 497.708 87.2302 497.815C87.7641 497.923 88.3178 497.868 88.8211 497.66C89.3243 497.451 89.7546 497.098 90.0573 496.643C90.36 496.189 90.5216 495.655 90.5216 495.109C90.5217 494.384 90.2374 493.688 89.7302 493.172C89.223 492.655 88.5335 492.36 87.8109 492.349H87.7807ZM65.6113 474.505C65.0667 474.503 64.5339 474.663 64.0801 474.965C63.6264 475.267 63.2722 475.698 63.0625 476.202C62.8527 476.706 62.7968 477.261 62.9018 477.797C63.0068 478.333 63.268 478.826 63.6523 479.213C64.0367 479.6 64.5268 479.864 65.0608 479.971C65.5947 480.078 66.1483 480.024 66.6516 479.816C67.1549 479.607 67.5851 479.253 67.8879 478.799C68.1906 478.345 68.3522 477.811 68.3522 477.265C68.3523 476.542 68.0694 475.847 67.5644 475.331C67.0593 474.815 66.3724 474.518 65.6516 474.505H65.6113Z" fill="#37474F"/>
</svg>
