<svg width="25" height="24" viewBox="0 0 25 24" fill="none" xmlns="http://www.w3.org/2000/svg">
<path d="M1.5 12C1.5 14.4477 1.63246 16.3463 1.96153 17.827C2.28807 19.2963 2.79478 20.2921 3.50136 20.9986C4.20794 21.7052 5.20365 22.2119 6.67298 22.5385C8.15366 22.8675 10.0523 23 12.5 23C14.9477 23 16.8463 22.8675 18.327 22.5385C19.7963 22.2119 20.7921 21.7052 21.4986 20.9986C22.2052 20.2921 22.7119 19.2963 23.0385 17.827C23.3675 16.3463 23.5 14.4477 23.5 12C23.5 9.55232 23.3675 7.65366 23.0385 6.17298C22.7119 4.70365 22.2052 3.70794 21.4986 3.00136C20.7921 2.29478 19.7963 1.78807 18.327 1.46153C16.8463 1.13246 14.9477 1 12.5 1C10.0523 1 8.15366 1.13246 6.67298 1.46153C5.20365 1.78807 4.20794 2.29478 3.50136 3.00136C2.79478 3.70794 2.28807 4.70365 1.96153 6.17298C1.63246 7.65366 1.5 9.55232 1.5 12Z" stroke="#292627" stroke-width="2" stroke-linecap="round" stroke-linejoin="round"/>
<path d="M17.3936 12C17.3936 11.2308 16.9368 10.7055 16.493 10.3379C16.0755 9.99207 15.4826 9.63499 14.8194 9.23562C14.7982 9.22288 14.777 9.21009 14.7557 9.19725L13.1403 8.22418C13.1186 8.21106 13.0969 8.19799 13.0752 8.18496C12.4134 7.78619 11.8201 7.42868 11.3227 7.22369C10.7997 7.00815 10.0978 6.84042 9.41602 7.2511C8.75018 7.65219 8.55056 8.33908 8.47083 8.89935C8.39342 9.4434 8.39348 10.1518 8.39355 10.9545C8.39355 10.9785 8.39355 11.0027 8.39355 11.0269L8.39355 12.9731C8.39355 12.9973 8.39355 13.0215 8.39355 13.0455C8.39348 13.8482 8.39342 14.5566 8.47083 15.1006C8.55056 15.6609 8.75018 16.3478 9.41602 16.7489C10.0978 17.1596 10.7997 16.9918 11.3227 16.7763C11.82 16.5713 12.4134 16.2138 13.0752 15.815C13.0968 15.802 13.1185 15.7889 13.1403 15.7758L14.7557 14.8027C14.777 14.7899 14.7982 14.7771 14.8194 14.7644C15.4825 14.365 16.0755 14.0079 16.493 13.6621C16.9368 13.2945 17.3936 12.7692 17.3936 12Z" stroke="#292627" stroke-width="2" stroke-linecap="round" stroke-linejoin="round"/>
</svg>
